# Blender 4.0.2
# www.blender.org
o Plane
v 0.000000 -1.000000 0.000000
v 0.000000 1.000000 -0.000000
v 0.997147 -1.000000 0.065356
v 0.997147 1.000000 0.065356
v -0.997147 1.000000 0.065356
v -0.997147 -1.000000 0.065356
v -1.977232 0.000000 0.260308
v 1.977232 0.000000 0.260308
v 0.000000 0.000000 0.000000
v 0.997147 0.000000 0.065356
v -0.997147 0.000000 0.065356
v -1.977232 -0.500000 0.260308
v 1.490380 -1.000000 0.146790
v 1.977232 0.500000 0.260308
v -1.490380 1.000000 0.146790
v -0.499643 -1.000000 0.016357
v 0.499643 1.000000 0.016356
v 0.000000 0.500000 -0.000000
v 0.499643 -1.000000 0.016357
v 1.490380 1.000000 0.146790
v 0.997147 0.500000 0.065356
v -0.499643 1.000000 0.016356
v -1.490380 -1.000000 0.146790
v -0.997147 0.500000 0.065356
v -1.977232 0.500000 0.260308
v 1.977232 -0.500000 0.260308
v 0.000000 -0.500000 0.000000
v 0.997147 -0.500000 0.065356
v -0.997147 -0.500000 0.065356
v -1.490380 0.000000 0.146790
v 0.499643 0.000000 0.016356
v -0.499643 0.000000 0.016356
v 1.490380 0.000000 0.146790
v 1.490380 -0.500000 0.146790
v -0.499643 -0.500000 0.016357
v 0.499643 -0.500000 0.016357
v -1.490380 -0.500000 0.146790
v -1.490380 0.500000 0.146790
v 0.499643 0.500000 0.016356
v -0.499643 0.500000 0.016356
v 1.490380 0.500000 0.146790
v -1.977232 -0.750000 0.260308
v 1.734735 -1.000000 0.199565
v 1.977232 0.750000 0.260308
v -1.734735 1.000000 0.199565
v -0.249955 -1.000000 0.004090
v 0.249955 1.000000 0.004090
v 0.000000 0.750000 -0.000000
v 0.748796 -1.000000 0.036786
v 1.244430 1.000000 0.102037
v 0.997147 0.750000 0.065356
v -0.748796 1.000000 0.036786
v -1.244430 -1.000000 0.102038
v -0.997147 0.750000 0.065356
v -1.977232 0.250000 0.260308
v 1.977232 -0.250000 0.260308
v 0.000000 -0.250000 0.000000
v 0.997147 -0.250000 0.065356
v -0.997147 -0.250000 0.065356
v -1.734735 0.000000 0.199565
v 0.249955 0.000000 0.004090
v -0.748796 0.000000 0.036786
v 1.244430 0.000000 0.102038
v -1.977232 -0.250000 0.260308
v 1.244430 -1.000000 0.102038
v 1.977232 0.250000 0.260308
v -1.244430 1.000000 0.102037
v -0.748796 -1.000000 0.036786
v 0.748796 1.000000 0.036786
v 0.000000 0.250000 -0.000000
v 0.249955 -1.000000 0.004090
v 1.734735 1.000000 0.199565
v 0.997147 0.250000 0.065356
v -0.249955 1.000000 0.004090
v -1.734735 -1.000000 0.199565
v -0.997147 0.250000 0.065356
v -1.977232 0.750000 0.260308
v 1.977232 -0.750000 0.260308
v 0.000000 -0.750000 0.000000
v 0.997147 -0.750000 0.065356
v -0.997147 -0.750000 0.065356
v -1.244430 0.000000 0.102038
v 0.748796 0.000000 0.036786
v -0.249955 0.000000 0.004090
v 1.734735 0.000000 0.199565
v 1.490380 -0.250000 0.146790
v 1.490380 -0.750000 0.146790
v 1.244430 -0.500000 0.102038
v 1.734735 -0.500000 0.199565
v -0.499643 -0.250000 0.016356
v -0.499643 -0.750000 0.016357
v -0.748796 -0.500000 0.036786
v -0.249955 -0.500000 0.004090
v 0.499643 -0.250000 0.016356
v 0.499643 -0.750000 0.016357
v 0.249955 -0.500000 0.004090
v 0.748796 -0.500000 0.036786
v -1.490380 -0.250000 0.146790
v -1.490380 -0.750000 0.146790
v -1.734735 -0.500000 0.199565
v -1.244430 -0.500000 0.102038
v -1.490380 0.750000 0.146790
v -1.490380 0.250000 0.146790
v -1.734735 0.500000 0.199565
v -1.244430 0.500000 0.102038
v 0.499643 0.750000 0.016356
v 0.499643 0.250000 0.016356
v 0.249955 0.500000 0.004090
v 0.748796 0.500000 0.036786
v -0.499643 0.750000 0.016356
v -0.499643 0.250000 0.016356
v -0.748796 0.500000 0.036786
v -0.249955 0.500000 0.004090
v 1.490380 0.750000 0.146790
v 1.490380 0.250000 0.146790
v 1.244430 0.500000 0.102038
v 1.734735 0.500000 0.199565
v 1.734735 0.250000 0.199565
v 1.244430 0.250000 0.102038
v 1.244430 0.750000 0.102038
v -0.249955 0.250000 0.004090
v -0.748796 0.250000 0.036786
v -0.748796 0.750000 0.036786
v 0.748796 0.250000 0.036786
v 0.249955 0.250000 0.004090
v 0.249955 0.750000 0.004090
v -1.244430 0.250000 0.102038
v -1.734735 0.250000 0.199565
v -1.734735 0.750000 0.199565
v -1.244430 -0.750000 0.102038
v -1.734735 -0.750000 0.199565
v -1.734735 -0.250000 0.199565
v 0.748796 -0.750000 0.036786
v 0.249955 -0.750000 0.004090
v 0.249955 -0.250000 0.004090
v -0.249955 -0.750000 0.004090
v -0.748796 -0.750000 0.036786
v -0.748796 -0.250000 0.036786
v 1.734735 -0.750000 0.199565
v 1.244430 -0.750000 0.102038
v 1.244430 -0.250000 0.102038
v 1.734735 -0.250000 0.199565
v -0.249955 -0.250000 0.004090
v 0.748796 -0.250000 0.036786
v -1.244430 -0.250000 0.102038
v -1.244430 0.750000 0.102038
v 0.748796 0.750000 0.036786
v -0.249955 0.750000 0.004090
v 1.734735 0.750000 0.199565
v -1.823159 -1.000000 0.220738
v -1.977232 -0.840924 0.260308
v -1.882217 -0.987891 0.235502
v -1.932191 -0.953408 0.248386
v -1.965533 -0.901800 0.257183
v 1.977232 -0.840924 0.260308
v 1.823159 -1.000000 0.220738
v 1.965533 -0.901800 0.257183
v 1.932191 -0.953408 0.248386
v 1.882217 -0.987891 0.235502
v -1.977232 0.840924 0.260308
v -1.823159 1.000000 0.220738
v -1.965533 0.901800 0.257183
v -1.932191 0.953408 0.248386
v -1.882217 0.987891 0.235502
v 1.823159 1.000000 0.220738
v 1.977232 0.840924 0.260308
v 1.882217 0.987891 0.235502
v 1.932191 0.953408 0.248386
v 1.965533 0.901800 0.257183
vn 0.0164 -0.0000 0.9999
vn -0.1143 -0.0000 0.9934
vn 0.1467 -0.0000 0.9892
vn -0.2430 -0.0000 0.9700
vn -0.1790 -0.0000 0.9838
vn 0.0817 -0.0000 0.9967
vn -0.0491 -0.0000 0.9988
vn 0.2111 -0.0000 0.9775
vn -0.2111 -0.0000 0.9775
vn -0.1467 -0.0000 0.9892
vn 0.0491 -0.0000 0.9988
vn 0.1143 -0.0000 0.9934
vn -0.0817 -0.0000 0.9967
vn -0.0164 -0.0000 0.9999
vn 0.1790 -0.0000 0.9838
vn 0.2430 -0.0000 0.9700
vn -0.2419 0.0028 0.9703
vn -0.2419 -0.0028 0.9703
vn 0.2419 0.0028 0.9703
vn 0.2419 -0.0028 0.9703
vt 0.437500 0.937500
vt 0.500000 0.937500
vt 0.500000 1.000000
vt 0.437500 1.000000
vt 0.687500 0.937500
vt 0.750000 0.937500
vt 0.750000 1.000000
vt 0.687500 1.000000
vt 0.187500 0.937500
vt 0.250000 0.937500
vt 0.250000 1.000000
vt 0.187500 1.000000
vt 0.187500 0.687500
vt 0.250000 0.687500
vt 0.250000 0.750000
vt 0.187500 0.750000
vt 0.687500 0.687500
vt 0.750000 0.687500
vt 0.750000 0.750000
vt 0.687500 0.750000
vt 0.437500 0.687500
vt 0.500000 0.687500
vt 0.500000 0.750000
vt 0.437500 0.750000
vt 0.937500 0.687500
vt 1.000000 0.687500
vt 1.000000 0.750000
vt 0.937500 0.750000
vt 0.812500 0.687500
vt 0.875000 0.687500
vt 0.875000 0.750000
vt 0.812500 0.750000
vt 0.812500 0.562500
vt 0.875000 0.562500
vt 0.875000 0.625000
vt 0.812500 0.625000
vt 0.937500 0.562500
vt 1.000000 0.562500
vt 1.000000 0.625000
vt 0.937500 0.625000
vt 0.312500 0.687500
vt 0.375000 0.687500
vt 0.375000 0.750000
vt 0.312500 0.750000
vt 0.312500 0.562500
vt 0.375000 0.562500
vt 0.375000 0.625000
vt 0.312500 0.625000
vt 0.437500 0.562500
vt 0.500000 0.562500
vt 0.500000 0.625000
vt 0.437500 0.625000
vt 0.562500 0.687500
vt 0.625000 0.687500
vt 0.625000 0.750000
vt 0.562500 0.750000
vt 0.562500 0.562500
vt 0.625000 0.562500
vt 0.625000 0.625000
vt 0.562500 0.625000
vt 0.687500 0.562500
vt 0.750000 0.562500
vt 0.750000 0.625000
vt 0.687500 0.625000
vt 0.062500 0.687500
vt 0.125000 0.687500
vt 0.125000 0.750000
vt 0.062500 0.750000
vt 0.062500 0.562500
vt 0.125000 0.562500
vt 0.125000 0.625000
vt 0.062500 0.625000
vt 0.187500 0.562500
vt 0.250000 0.562500
vt 0.250000 0.625000
vt 0.187500 0.625000
vt 0.062500 0.937500
vt 0.125000 0.937500
vt 0.125000 1.000000
vt 0.062500 1.000000
vt 0.062500 0.812500
vt 0.125000 0.812500
vt 0.125000 0.875000
vt 0.062500 0.875000
vt 0.187500 0.812500
vt 0.250000 0.812500
vt 0.250000 0.875000
vt 0.187500 0.875000
vt 0.562500 0.937500
vt 0.625000 0.937500
vt 0.625000 1.000000
vt 0.562500 1.000000
vt 0.562500 0.812500
vt 0.625000 0.812500
vt 0.625000 0.875000
vt 0.562500 0.875000
vt 0.687500 0.812500
vt 0.750000 0.812500
vt 0.750000 0.875000
vt 0.687500 0.875000
vt 0.312500 0.937500
vt 0.375000 0.937500
vt 0.375000 1.000000
vt 0.312500 1.000000
vt 0.312500 0.812500
vt 0.375000 0.812500
vt 0.375000 0.875000
vt 0.312500 0.875000
vt 0.437500 0.812500
vt 0.500000 0.812500
vt 0.500000 0.875000
vt 0.437500 0.875000
vt 0.812500 0.937500
vt 0.875000 0.937500
vt 0.875000 1.000000
vt 0.812500 1.000000
vt 0.812500 0.812500
vt 0.875000 0.812500
vt 0.875000 0.875000
vt 0.812500 0.875000
vt 0.937500 0.812500
vt 1.000000 0.812500
vt 1.000000 0.875000
vt 0.937500 0.875000
vt 0.000000 0.812500
vt 0.000000 0.875000
vt 0.000000 0.750000
vt 0.937500 0.937500
vt 1.000000 0.937500
vt 1.000000 0.960231
vt 0.996973 0.975450
vt 0.988352 0.988352
vt 0.975450 0.996973
vt 0.960231 1.000000
vt 0.937500 1.000000
vt 0.000000 0.937500
vt 0.125000 0.500000
vt 0.187500 0.500000
vt 0.250000 0.500000
vt 0.000000 0.562500
vt 0.000000 0.625000
vt 0.937500 0.500000
vt 0.960231 0.500000
vt 0.975450 0.503027
vt 0.988352 0.511648
vt 0.996973 0.524550
vt 1.000000 0.539769
vt 0.062500 0.500000
vt 0.000000 0.687500
vt 0.625000 0.500000
vt 0.687500 0.500000
vt 0.750000 0.500000
vt 0.500000 0.500000
vt 0.562500 0.500000
vt 0.375000 0.500000
vt 0.437500 0.500000
vt 0.312500 0.500000
vt 0.875000 0.500000
vt 0.039769 1.000000
vt 0.024550 0.996973
vt 0.011648 0.988352
vt 0.003027 0.975450
vt 0.000000 0.960231
vt 0.812500 0.500000
vt 0.000000 0.539769
vt 0.003027 0.524550
vt 0.011648 0.511648
vt 0.024550 0.503027
vt 0.039769 0.500000
s 0
f 148/1/1 48/2/1 2/3/1 74/4/1
f 147/5/2 51/6/2 4/7/2 69/8/2
f 146/9/3 54/10/3 5/11/3 67/12/3
f 145/13/3 59/14/3 11/15/3 82/16/3
f 144/17/2 58/18/2 10/19/2 83/20/2
f 143/21/1 57/22/1 9/23/1 84/24/1
f 142/25/4 56/26/4 8/27/4 85/28/4
f 141/29/5 86/30/5 33/31/5 63/32/5
f 140/33/5 87/34/5 34/35/5 88/36/5
f 139/37/4 78/38/4 26/39/4 89/40/4
f 138/41/6 90/42/6 32/43/6 62/44/6
f 137/45/6 91/46/6 35/47/6 92/48/6
f 136/49/1 79/50/1 27/51/1 93/52/1
f 135/53/7 94/54/7 31/55/7 61/56/7
f 134/57/7 95/58/7 36/59/7 96/60/7
f 133/61/2 80/62/2 28/63/2 97/64/2
f 132/65/8 98/66/8 30/67/8 60/68/8
f 131/69/8 99/70/8 37/71/8 100/72/8
f 130/73/3 81/74/3 29/75/3 101/76/3
f 129/77/8 102/78/8 15/79/8 45/80/8
f 128/81/8 103/82/8 38/83/8 104/84/8
f 127/85/3 76/86/3 24/87/3 105/88/3
f 126/89/7 106/90/7 17/91/7 47/92/7
f 125/93/7 107/94/7 39/95/7 108/96/7
f 124/97/2 73/98/2 21/99/2 109/100/2
f 123/101/6 110/102/6 22/103/6 52/104/6
f 122/105/6 111/106/6 40/107/6 112/108/6
f 121/109/1 70/110/1 18/111/1 113/112/1
f 120/113/5 114/114/5 20/115/5 50/116/5
f 119/117/5 115/118/5 41/119/5 116/120/5
f 118/121/4 66/122/4 14/123/4 117/124/4
f 115/118/9 118/121/9 117/124/9 41/119/9
f 33/31/9 85/28/9 118/121/9 115/118/9
f 85/28/4 8/27/4 66/122/4 118/121/4
f 73/98/10 119/117/10 116/120/10 21/99/10
f 10/19/10 63/32/10 119/117/10 73/98/10
f 63/32/5 33/31/5 115/118/5 119/117/5
f 51/6/10 120/113/10 50/116/10 4/7/10
f 21/99/10 116/120/10 120/113/10 51/6/10
f 116/120/5 41/119/5 114/114/5 120/113/5
f 111/106/11 121/109/11 113/112/11 40/107/11
f 32/43/11 84/24/11 121/109/11 111/106/11
f 84/24/1 9/23/1 70/110/1 121/109/1
f 76/86/12 122/105/12 112/108/12 24/87/12
f 11/15/12 62/44/12 122/105/12 76/86/12
f 62/44/6 32/43/6 111/106/6 122/105/6
f 54/10/12 123/101/12 52/104/12 5/11/12
f 24/87/12 112/108/12 123/101/12 54/10/12
f 112/108/6 40/107/6 110/102/6 123/101/6
f 107/94/13 124/97/13 109/100/13 39/95/13
f 31/55/13 83/20/13 124/97/13 107/94/13
f 83/20/2 10/19/2 73/98/2 124/97/2
f 70/110/14 125/93/14 108/96/14 18/111/14
f 9/23/14 61/56/14 125/93/14 70/110/14
f 61/56/7 31/55/7 107/94/7 125/93/7
f 48/2/14 126/89/14 47/92/14 2/3/14
f 18/111/14 108/96/14 126/89/14 48/2/14
f 108/96/7 39/95/7 106/90/7 126/89/7
f 103/82/15 127/85/15 105/88/15 38/83/15
f 30/67/15 82/16/15 127/85/15 103/82/15
f 82/16/3 11/15/3 76/86/3 127/85/3
f 55/125/16 128/81/16 104/84/16 25/126/16
f 7/127/16 60/68/16 128/81/16 55/125/16
f 60/68/8 30/67/8 103/82/8 128/81/8
f 149/128/17 44/129/17 166/130/17 169/131/17 168/132/17 167/133/17 165/134/17 72/135/17
f 25/126/16 104/84/16 129/77/16 77/136/16
f 104/84/8 38/83/8 102/78/8 129/77/8
f 99/70/15 130/73/15 101/76/15 37/71/15
f 23/137/15 53/138/15 130/73/15 99/70/15
f 53/138/3 6/139/3 81/74/3 130/73/3
f 42/140/16 131/69/16 100/72/16 12/141/16
f 43/142/18 156/143/18 159/144/18 158/145/18 157/146/18 155/147/18 78/38/18 139/37/18
f 75/148/8 23/137/8 99/70/8 131/69/8
f 64/149/16 132/65/16 60/68/16 7/127/16
f 12/141/16 100/72/16 132/65/16 64/149/16
f 100/72/8 37/71/8 98/66/8 132/65/8
f 95/58/13 133/61/13 97/64/13 36/59/13
f 19/150/13 49/151/13 133/61/13 95/58/13
f 49/151/2 3/152/2 80/62/2 133/61/2
f 79/50/14 134/57/14 96/60/14 27/51/14
f 1/153/14 71/154/14 134/57/14 79/50/14
f 71/154/7 19/150/7 95/58/7 134/57/7
f 57/22/14 135/53/14 61/56/14 9/23/14
f 27/51/14 96/60/14 135/53/14 57/22/14
f 96/60/7 36/59/7 94/54/7 135/53/7
f 91/46/11 136/49/11 93/52/11 35/47/11
f 16/155/11 46/156/11 136/49/11 91/46/11
f 46/156/1 1/153/1 79/50/1 136/49/1
f 81/74/12 137/45/12 92/48/12 29/75/12
f 6/139/12 68/157/12 137/45/12 81/74/12
f 68/157/6 16/155/6 91/46/6 137/45/6
f 59/14/12 138/41/12 62/44/12 11/15/12
f 29/75/12 92/48/12 138/41/12 59/14/12
f 92/48/6 35/47/6 90/42/6 138/41/6
f 87/34/9 139/37/9 89/40/9 34/35/9
f 13/158/9 43/142/9 139/37/9 87/34/9
f 77/136/19 129/77/19 45/80/19 161/159/19 164/160/19 163/161/19 162/162/19 160/163/19
f 80/62/10 140/33/10 88/36/10 28/63/10
f 3/152/10 65/164/10 140/33/10 80/62/10
f 65/164/5 13/158/5 87/34/5 140/33/5
f 58/18/10 141/29/10 63/32/10 10/19/10
f 28/63/10 88/36/10 141/29/10 58/18/10
f 88/36/5 34/35/5 86/30/5 141/29/5
f 86/30/9 142/25/9 85/28/9 33/31/9
f 34/35/9 89/40/9 142/25/9 86/30/9
f 89/40/4 26/39/4 56/26/4 142/25/4
f 90/42/11 143/21/11 84/24/11 32/43/11
f 35/47/11 93/52/11 143/21/11 90/42/11
f 93/52/1 27/51/1 57/22/1 143/21/1
f 94/54/13 144/17/13 83/20/13 31/55/13
f 36/59/13 97/64/13 144/17/13 94/54/13
f 97/64/2 28/63/2 58/18/2 144/17/2
f 98/66/15 145/13/15 82/16/15 30/67/15
f 37/71/15 101/76/15 145/13/15 98/66/15
f 101/76/3 29/75/3 59/14/3 145/13/3
f 102/78/15 146/9/15 67/12/15 15/79/15
f 38/83/15 105/88/15 146/9/15 102/78/15
f 105/88/3 24/87/3 54/10/3 146/9/3
f 106/90/13 147/5/13 69/8/13 17/91/13
f 39/95/13 109/100/13 147/5/13 106/90/13
f 109/100/2 21/99/2 51/6/2 147/5/2
f 110/102/11 148/1/11 74/4/11 22/103/11
f 40/107/11 113/112/11 148/1/11 110/102/11
f 113/112/1 18/111/1 48/2/1 148/1/1
f 114/114/9 149/128/9 72/135/9 20/115/9
f 41/119/9 117/124/9 149/128/9 114/114/9
f 117/124/4 14/123/4 44/129/4 149/128/4
f 151/165/20 154/166/20 153/167/20 152/168/20 150/169/20 75/148/20 131/69/20 42/140/20
