# Blender 3.6.1
# www.blender.org
mtllib menu.mtl
o Plane
v 0.000000 -1.000000 0.000000
v 0.000000 1.000000 -0.000000
v 0.997147 -1.000000 0.065356
v 0.997147 1.000000 0.065356
v -0.997147 1.000000 0.065356
v -0.997147 -1.000000 0.065356
v -1.977232 0.000000 0.260308
v 1.977232 0.000000 0.260308
v 0.000000 0.000000 0.000000
v 0.997147 0.000000 0.065356
v -0.997147 0.000000 0.065356
v -1.977232 -0.500000 0.260308
v 1.490380 -1.000000 0.146790
v 1.977232 0.500000 0.260308
v -1.490380 1.000000 0.146790
v -0.499643 -1.000000 0.016357
v 0.499643 1.000000 0.016356
v 0.000000 0.500000 -0.000000
v 0.499643 -1.000000 0.016357
v 1.490380 1.000000 0.146790
v 0.997147 0.500000 0.065356
v -0.499643 1.000000 0.016356
v -1.490380 -1.000000 0.146790
v -0.997147 0.500000 0.065356
v -1.977232 0.500000 0.260308
v 1.977232 -0.500000 0.260308
v 0.000000 -0.500000 0.000000
v 0.997147 -0.500000 0.065356
v -0.997147 -0.500000 0.065356
v -1.490380 0.000000 0.146790
v 0.499643 0.000000 0.016356
v -0.499643 0.000000 0.016356
v 1.490380 0.000000 0.146790
v 1.490380 -0.500000 0.146790
v -0.499643 -0.500000 0.016357
v 0.499643 -0.500000 0.016357
v -1.490380 -0.500000 0.146790
v -1.490380 0.500000 0.146790
v 0.499643 0.500000 0.016356
v -0.499643 0.500000 0.016356
v 1.490380 0.500000 0.146790
v -1.977232 -0.750000 0.260308
v 1.734735 -1.000000 0.199565
v 1.977232 0.750000 0.260308
v -1.734735 1.000000 0.199565
v -0.249955 -1.000000 0.004090
v 0.249955 1.000000 0.004090
v 0.000000 0.750000 -0.000000
v 0.748796 -1.000000 0.036786
v 1.244430 1.000000 0.102037
v 0.997147 0.750000 0.065356
v -0.748796 1.000000 0.036786
v -1.244430 -1.000000 0.102038
v -0.997147 0.750000 0.065356
v -1.977232 0.250000 0.260308
v 1.977232 -0.250000 0.260308
v 0.000000 -0.250000 0.000000
v 0.997147 -0.250000 0.065356
v -0.997147 -0.250000 0.065356
v -1.734735 0.000000 0.199565
v 0.249955 0.000000 0.004090
v -0.748796 0.000000 0.036786
v 1.244430 0.000000 0.102038
v -1.977232 -0.250000 0.260308
v 1.244430 -1.000000 0.102038
v 1.977232 0.250000 0.260308
v -1.244430 1.000000 0.102037
v -0.748796 -1.000000 0.036786
v 0.748796 1.000000 0.036786
v 0.000000 0.250000 -0.000000
v 0.249955 -1.000000 0.004090
v 1.734735 1.000000 0.199565
v 0.997147 0.250000 0.065356
v -0.249955 1.000000 0.004090
v -1.734735 -1.000000 0.199565
v -0.997147 0.250000 0.065356
v -1.977232 0.750000 0.260308
v 1.977232 -0.750000 0.260308
v 0.000000 -0.750000 0.000000
v 0.997147 -0.750000 0.065356
v -0.997147 -0.750000 0.065356
v -1.244430 0.000000 0.102038
v 0.748796 0.000000 0.036786
v -0.249955 0.000000 0.004090
v 1.734735 0.000000 0.199565
v 1.490380 -0.250000 0.146790
v 1.490380 -0.750000 0.146790
v 1.244430 -0.500000 0.102038
v 1.734735 -0.500000 0.199565
v -0.499643 -0.250000 0.016356
v -0.499643 -0.750000 0.016357
v -0.748796 -0.500000 0.036786
v -0.249955 -0.500000 0.004090
v 0.499643 -0.250000 0.016356
v 0.499643 -0.750000 0.016357
v 0.249955 -0.500000 0.004090
v 0.748796 -0.500000 0.036786
v -1.490380 -0.250000 0.146790
v -1.490380 -0.750000 0.146790
v -1.734735 -0.500000 0.199565
v -1.244430 -0.500000 0.102038
v -1.490380 0.750000 0.146790
v -1.490380 0.250000 0.146790
v -1.734735 0.500000 0.199565
v -1.244430 0.500000 0.102038
v 0.499643 0.750000 0.016356
v 0.499643 0.250000 0.016356
v 0.249955 0.500000 0.004090
v 0.748796 0.500000 0.036786
v -0.499643 0.750000 0.016356
v -0.499643 0.250000 0.016356
v -0.748796 0.500000 0.036786
v -0.249955 0.500000 0.004090
v 1.490380 0.750000 0.146790
v 1.490380 0.250000 0.146790
v 1.244430 0.500000 0.102038
v 1.734735 0.500000 0.199565
v 1.734735 0.250000 0.199565
v 1.244430 0.250000 0.102038
v 1.244430 0.750000 0.102038
v -0.249955 0.250000 0.004090
v -0.748796 0.250000 0.036786
v -0.748796 0.750000 0.036786
v 0.748796 0.250000 0.036786
v 0.249955 0.250000 0.004090
v 0.249955 0.750000 0.004090
v -1.244430 0.250000 0.102038
v -1.734735 0.250000 0.199565
v -1.734735 0.750000 0.199565
v -1.244430 -0.750000 0.102038
v -1.734735 -0.750000 0.199565
v -1.734735 -0.250000 0.199565
v 0.748796 -0.750000 0.036786
v 0.249955 -0.750000 0.004090
v 0.249955 -0.250000 0.004090
v -0.249955 -0.750000 0.004090
v -0.748796 -0.750000 0.036786
v -0.748796 -0.250000 0.036786
v 1.734735 -0.750000 0.199565
v 1.244430 -0.750000 0.102038
v 1.244430 -0.250000 0.102038
v 1.734735 -0.250000 0.199565
v -0.249955 -0.250000 0.004090
v 0.748796 -0.250000 0.036786
v -1.244430 -0.250000 0.102038
v -1.244430 0.750000 0.102038
v 0.748796 0.750000 0.036786
v -0.249955 0.750000 0.004090
v 1.734735 0.750000 0.199565
v -1.823159 -1.000000 0.220738
v -1.977232 -0.840924 0.260308
v -1.882217 -0.987891 0.235502
v -1.932191 -0.953408 0.248386
v -1.965533 -0.901800 0.257183
v 1.977232 -0.840924 0.260308
v 1.823159 -1.000000 0.220738
v 1.965533 -0.901800 0.257183
v 1.932191 -0.953408 0.248386
v 1.882217 -0.987891 0.235502
v -1.977232 0.840924 0.260308
v -1.823159 1.000000 0.220738
v -1.965533 0.901800 0.257183
v -1.932191 0.953408 0.248386
v -1.882217 0.987891 0.235502
v 1.823159 1.000000 0.220738
v 1.977232 0.840924 0.260308
v 1.882217 0.987891 0.235502
v 1.932191 0.953408 0.248386
v 1.965533 0.901800 0.257183
vn 0.0327 -0.0000 0.9995
vn -0.0000 -0.0000 1.0000
vn -0.0980 -0.0000 0.9952
vn -0.1305 -0.0000 0.9914
vn 0.1629 -0.0000 0.9866
vn 0.1305 -0.0000 0.9914
vn -0.2271 -0.0000 0.9739
vn -0.2430 -0.0000 0.9700
vn -0.1629 -0.0000 0.9866
vn -0.1951 -0.0000 0.9808
vn -0.2268 -0.0007 0.9739
vn -0.2424 -0.0014 0.9702
vn 0.0980 -0.0000 0.9952
vn 0.0654 -0.0000 0.9979
vn -0.0327 -0.0000 0.9995
vn -0.0654 -0.0000 0.9979
vn 0.2271 -0.0000 0.9739
vn 0.1951 -0.0000 0.9808
vn 0.2268 -0.0007 0.9739
vn 0.2268 0.0007 0.9739
vn 0.2265 0.0014 0.9740
vn 0.2430 -0.0000 0.9700
vn -0.2268 0.0007 0.9739
vn -0.2424 0.0014 0.9702
vn -0.2419 0.0028 0.9703
vn -0.2265 0.0014 0.9740
vn 0.2424 0.0014 0.9702
vn 0.2424 -0.0014 0.9702
vn -0.2265 -0.0014 0.9740
vn -0.2419 -0.0028 0.9703
vn 0.2265 -0.0014 0.9740
vn 0.2419 0.0028 0.9703
vn 0.2419 -0.0028 0.9703
vt 0.437500 0.937500
vt 0.500000 0.937500
vt 0.500000 1.000000
vt 0.437500 1.000000
vt 0.687500 0.937500
vt 0.750000 0.937500
vt 0.750000 1.000000
vt 0.687500 1.000000
vt 0.187500 0.937500
vt 0.250000 0.937500
vt 0.250000 1.000000
vt 0.187500 1.000000
vt 0.187500 0.687500
vt 0.250000 0.687500
vt 0.250000 0.750000
vt 0.187500 0.750000
vt 0.687500 0.687500
vt 0.750000 0.687500
vt 0.750000 0.750000
vt 0.687500 0.750000
vt 0.437500 0.687500
vt 0.500000 0.687500
vt 0.500000 0.750000
vt 0.437500 0.750000
vt 0.937500 0.687500
vt 1.000000 0.687500
vt 1.000000 0.750000
vt 0.937500 0.750000
vt 0.812500 0.687500
vt 0.875000 0.687500
vt 0.875000 0.750000
vt 0.812500 0.750000
vt 0.812500 0.562500
vt 0.875000 0.562500
vt 0.875000 0.625000
vt 0.812500 0.625000
vt 0.937500 0.562500
vt 1.000000 0.562500
vt 1.000000 0.625000
vt 0.937500 0.625000
vt 0.312500 0.687500
vt 0.375000 0.687500
vt 0.375000 0.750000
vt 0.312500 0.750000
vt 0.312500 0.562500
vt 0.375000 0.562500
vt 0.375000 0.625000
vt 0.312500 0.625000
vt 0.437500 0.562500
vt 0.500000 0.562500
vt 0.500000 0.625000
vt 0.437500 0.625000
vt 0.562500 0.687500
vt 0.625000 0.687500
vt 0.625000 0.750000
vt 0.562500 0.750000
vt 0.562500 0.562500
vt 0.625000 0.562500
vt 0.625000 0.625000
vt 0.562500 0.625000
vt 0.687500 0.562500
vt 0.750000 0.562500
vt 0.750000 0.625000
vt 0.687500 0.625000
vt 0.062500 0.687500
vt 0.125000 0.687500
vt 0.125000 0.750000
vt 0.062500 0.750000
vt 0.062500 0.562500
vt 0.125000 0.562500
vt 0.125000 0.625000
vt 0.062500 0.625000
vt 0.187500 0.562500
vt 0.250000 0.562500
vt 0.250000 0.625000
vt 0.187500 0.625000
vt 0.062500 0.937500
vt 0.125000 0.937500
vt 0.125000 1.000000
vt 0.062500 1.000000
vt 0.062500 0.812500
vt 0.125000 0.812500
vt 0.125000 0.875000
vt 0.062500 0.875000
vt 0.187500 0.812500
vt 0.250000 0.812500
vt 0.250000 0.875000
vt 0.187500 0.875000
vt 0.562500 0.937500
vt 0.625000 0.937500
vt 0.625000 1.000000
vt 0.562500 1.000000
vt 0.562500 0.812500
vt 0.625000 0.812500
vt 0.625000 0.875000
vt 0.562500 0.875000
vt 0.687500 0.812500
vt 0.750000 0.812500
vt 0.750000 0.875000
vt 0.687500 0.875000
vt 0.312500 0.937500
vt 0.375000 0.937500
vt 0.375000 1.000000
vt 0.312500 1.000000
vt 0.312500 0.812500
vt 0.375000 0.812500
vt 0.375000 0.875000
vt 0.312500 0.875000
vt 0.437500 0.812500
vt 0.500000 0.812500
vt 0.500000 0.875000
vt 0.437500 0.875000
vt 0.812500 0.937500
vt 0.875000 0.937500
vt 0.875000 1.000000
vt 0.812500 1.000000
vt 0.812500 0.812500
vt 0.875000 0.812500
vt 0.875000 0.875000
vt 0.812500 0.875000
vt 0.937500 0.812500
vt 1.000000 0.812500
vt 1.000000 0.875000
vt 0.937500 0.875000
vt 0.000000 0.812500
vt 0.000000 0.875000
vt 0.000000 0.750000
vt 0.937500 0.937500
vt 1.000000 0.937500
vt 1.000000 0.960231
vt 0.996973 0.975450
vt 0.988352 0.988352
vt 0.975450 0.996973
vt 0.960231 1.000000
vt 0.937500 1.000000
vt 0.000000 0.937500
vt 0.125000 0.500000
vt 0.187500 0.500000
vt 0.250000 0.500000
vt 0.000000 0.562500
vt 0.000000 0.625000
vt 0.937500 0.500000
vt 0.960231 0.500000
vt 0.975450 0.503027
vt 0.988352 0.511648
vt 0.996973 0.524550
vt 1.000000 0.539769
vt 0.062500 0.500000
vt 0.000000 0.687500
vt 0.625000 0.500000
vt 0.687500 0.500000
vt 0.750000 0.500000
vt 0.500000 0.500000
vt 0.562500 0.500000
vt 0.375000 0.500000
vt 0.437500 0.500000
vt 0.312500 0.500000
vt 0.875000 0.500000
vt 0.039769 1.000000
vt 0.024550 0.996973
vt 0.011648 0.988352
vt 0.003027 0.975450
vt 0.000000 0.960231
vt 0.812500 0.500000
vt 0.000000 0.539769
vt 0.003027 0.524550
vt 0.011648 0.511648
vt 0.024550 0.503027
vt 0.039769 0.500000
s 1
f 148/1/1 48/2/2 2/3/2 74/4/1
f 147/5/3 51/6/4 4/7/4 69/8/3
f 146/9/5 54/10/6 5/11/6 67/12/5
f 145/13/5 59/14/6 11/15/6 82/16/5
f 144/17/3 58/18/4 10/19/4 83/20/3
f 143/21/1 57/22/2 9/23/2 84/24/1
f 142/25/7 56/26/8 8/27/8 85/28/7
f 141/29/9 86/30/10 33/31/10 63/32/9
f 140/33/9 87/34/10 34/35/10 88/36/9
f 139/37/11 78/38/12 26/39/8 89/40/7
f 138/41/13 90/42/14 32/43/14 62/44/13
f 137/45/13 91/46/14 35/47/14 92/48/13
f 136/49/1 79/50/2 27/51/2 93/52/1
f 135/53/15 94/54/16 31/55/16 61/56/15
f 134/57/15 95/58/16 36/59/16 96/60/15
f 133/61/3 80/62/4 28/63/4 97/64/3
f 132/65/17 98/66/18 30/67/18 60/68/17
f 131/69/19 99/70/18 37/71/18 100/72/17
f 130/73/5 81/74/6 29/75/6 101/76/5
f 129/77/20 102/78/18 15/79/18 45/80/21
f 128/81/17 103/82/18 38/83/18 104/84/17
f 127/85/5 76/86/6 24/87/6 105/88/5
f 126/89/15 106/90/16 17/91/16 47/92/15
f 125/93/15 107/94/16 39/95/16 108/96/15
f 124/97/3 73/98/4 21/99/4 109/100/3
f 123/101/13 110/102/14 22/103/14 52/104/13
f 122/105/13 111/106/14 40/107/14 112/108/13
f 121/109/1 70/110/2 18/111/2 113/112/1
f 120/113/9 114/114/10 20/115/10 50/116/9
f 119/117/9 115/118/10 41/119/10 116/120/9
f 118/121/7 66/122/8 14/123/8 117/124/7
f 115/118/10 118/121/7 117/124/7 41/119/10
f 33/31/10 85/28/7 118/121/7 115/118/10
f 85/28/7 8/27/8 66/122/8 118/121/7
f 73/98/4 119/117/9 116/120/9 21/99/4
f 10/19/4 63/32/9 119/117/9 73/98/4
f 63/32/9 33/31/10 115/118/10 119/117/9
f 51/6/4 120/113/9 50/116/9 4/7/4
f 21/99/4 116/120/9 120/113/9 51/6/4
f 116/120/9 41/119/10 114/114/10 120/113/9
f 111/106/14 121/109/1 113/112/1 40/107/14
f 32/43/14 84/24/1 121/109/1 111/106/14
f 84/24/1 9/23/2 70/110/2 121/109/1
f 76/86/6 122/105/13 112/108/13 24/87/6
f 11/15/6 62/44/13 122/105/13 76/86/6
f 62/44/13 32/43/14 111/106/14 122/105/13
f 54/10/6 123/101/13 52/104/13 5/11/6
f 24/87/6 112/108/13 123/101/13 54/10/6
f 112/108/13 40/107/14 110/102/14 123/101/13
f 107/94/16 124/97/3 109/100/3 39/95/16
f 31/55/16 83/20/3 124/97/3 107/94/16
f 83/20/3 10/19/4 73/98/4 124/97/3
f 70/110/2 125/93/15 108/96/15 18/111/2
f 9/23/2 61/56/15 125/93/15 70/110/2
f 61/56/15 31/55/16 107/94/16 125/93/15
f 48/2/2 126/89/15 47/92/15 2/3/2
f 18/111/2 108/96/15 126/89/15 48/2/2
f 108/96/15 39/95/16 106/90/16 126/89/15
f 103/82/18 127/85/5 105/88/5 38/83/18
f 30/67/18 82/16/5 127/85/5 103/82/18
f 82/16/5 11/15/6 76/86/6 127/85/5
f 55/125/22 128/81/17 104/84/17 25/126/22
f 7/127/22 60/68/17 128/81/17 55/125/22
f 60/68/17 30/67/18 103/82/18 128/81/17
f 149/128/23 44/129/24 166/130/25 169/131/25 168/132/25 167/133/25 165/134/25 72/135/26
f 25/126/22 104/84/17 129/77/20 77/136/27
f 104/84/17 38/83/18 102/78/18 129/77/20
f 99/70/18 130/73/5 101/76/5 37/71/18
f 23/137/18 53/138/5 130/73/5 99/70/18
f 53/138/5 6/139/6 81/74/6 130/73/5
f 42/140/28 131/69/19 100/72/17 12/141/22
f 43/142/29 156/143/30 159/144/30 158/145/30 157/146/30 155/147/30 78/38/12 139/37/11
f 75/148/31 23/137/18 99/70/18 131/69/19
f 64/149/22 132/65/17 60/68/17 7/127/22
f 12/141/22 100/72/17 132/65/17 64/149/22
f 100/72/17 37/71/18 98/66/18 132/65/17
f 95/58/16 133/61/3 97/64/3 36/59/16
f 19/150/16 49/151/3 133/61/3 95/58/16
f 49/151/3 3/152/4 80/62/4 133/61/3
f 79/50/2 134/57/15 96/60/15 27/51/2
f 1/153/2 71/154/15 134/57/15 79/50/2
f 71/154/15 19/150/16 95/58/16 134/57/15
f 57/22/2 135/53/15 61/56/15 9/23/2
f 27/51/2 96/60/15 135/53/15 57/22/2
f 96/60/15 36/59/16 94/54/16 135/53/15
f 91/46/14 136/49/1 93/52/1 35/47/14
f 16/155/14 46/156/1 136/49/1 91/46/14
f 46/156/1 1/153/2 79/50/2 136/49/1
f 81/74/6 137/45/13 92/48/13 29/75/6
f 6/139/6 68/157/13 137/45/13 81/74/6
f 68/157/13 16/155/14 91/46/14 137/45/13
f 59/14/6 138/41/13 62/44/13 11/15/6
f 29/75/6 92/48/13 138/41/13 59/14/6
f 92/48/13 35/47/14 90/42/14 138/41/13
f 87/34/10 139/37/11 89/40/7 34/35/10
f 13/158/10 43/142/29 139/37/11 87/34/10
f 77/136/27 129/77/20 45/80/21 161/159/32 164/160/32 163/161/32 162/162/32 160/163/32
f 80/62/4 140/33/9 88/36/9 28/63/4
f 3/152/4 65/164/9 140/33/9 80/62/4
f 65/164/9 13/158/10 87/34/10 140/33/9
f 58/18/4 141/29/9 63/32/9 10/19/4
f 28/63/4 88/36/9 141/29/9 58/18/4
f 88/36/9 34/35/10 86/30/10 141/29/9
f 86/30/10 142/25/7 85/28/7 33/31/10
f 34/35/10 89/40/7 142/25/7 86/30/10
f 89/40/7 26/39/8 56/26/8 142/25/7
f 90/42/14 143/21/1 84/24/1 32/43/14
f 35/47/14 93/52/1 143/21/1 90/42/14
f 93/52/1 27/51/2 57/22/2 143/21/1
f 94/54/16 144/17/3 83/20/3 31/55/16
f 36/59/16 97/64/3 144/17/3 94/54/16
f 97/64/3 28/63/4 58/18/4 144/17/3
f 98/66/18 145/13/5 82/16/5 30/67/18
f 37/71/18 101/76/5 145/13/5 98/66/18
f 101/76/5 29/75/6 59/14/6 145/13/5
f 102/78/18 146/9/5 67/12/5 15/79/18
f 38/83/18 105/88/5 146/9/5 102/78/18
f 105/88/5 24/87/6 54/10/6 146/9/5
f 106/90/16 147/5/3 69/8/3 17/91/16
f 39/95/16 109/100/3 147/5/3 106/90/16
f 109/100/3 21/99/4 51/6/4 147/5/3
f 110/102/14 148/1/1 74/4/1 22/103/14
f 40/107/14 113/112/1 148/1/1 110/102/14
f 113/112/1 18/111/2 48/2/2 148/1/1
f 114/114/10 149/128/23 72/135/26 20/115/10
f 41/119/10 117/124/7 149/128/23 114/114/10
f 117/124/7 14/123/8 44/129/24 149/128/23
f 151/165/33 154/166/33 153/167/33 152/168/33 150/169/33 75/148/31 131/69/19 42/140/28
