{
	"asset":{
		"generator":"Khronos glTF Blender I/O v4.0.44",
		"version":"2.0"
	},
	"scene":0,
	"scenes":[
		{
			"name":"Scene",
			"nodes":[
				0
			]
		}
	],
	"nodes":[
		{
			"mesh":0,
			"name":"Cylinder"
		}
	],
	"materials":[
		{
			"doubleSided":true,
			"name":"Material.001",
			"pbrMetallicRoughness":{
				"baseColorFactor":[
					0.1843598186969757,
					0.1843598186969757,
					0.1843598186969757,
					1
				],
				"metallicFactor":0.8818181753158569,
				"roughnessFactor":0.1090908944606781
			}
		},
		{
			"doubleSided":true,
			"name":"Material.002",
			"pbrMetallicRoughness":{
				"baseColorTexture":{
					"index":0
				},
				"metallicFactor":0
			}
		}
	],
	"meshes":[
		{
			"name":"Cylinder",
			"primitives":[
				{
					"attributes":{
						"POSITION":0,
						"NORMAL":1,
						"TEXCOORD_0":2
					},
					"indices":3,
					"material":0
				},
				{
					"attributes":{
						"POSITION":4,
						"NORMAL":5,
						"TEXCOORD_0":6
					},
					"indices":7,
					"material":1
				}
			]
		}
	],
	"textures":[
		{
			"sampler":0,
			"source":0
		}
	],
	"images":[
		{
			"mimeType":"image/jpeg",
			"name":"wood_gradient_1",
			"uri":"textures/wood_gradient_1.jpg"
		}
	],
	"accessors":[
		{
			"bufferView":0,
			"componentType":5126,
			"count":507,
			"max":[
				0.9004113078117371,
				1,
				0.923566997051239
			],
			"min":[
				-0.9004113078117371,
				-0.8897098302841187,
				-0.923566997051239
			],
			"type":"VEC3"
		},
		{
			"bufferView":1,
			"componentType":5126,
			"count":507,
			"type":"VEC3"
		},
		{
			"bufferView":2,
			"componentType":5126,
			"count":507,
			"type":"VEC2"
		},
		{
			"bufferView":3,
			"componentType":5123,
			"count":759,
			"type":"SCALAR"
		},
		{
			"bufferView":4,
			"componentType":5126,
			"count":469,
			"max":[
				0.8950954675674438,
				1,
				0.9181144833564758
			],
			"min":[
				-0.8950954675674438,
				-1,
				-0.9181144833564758
			],
			"type":"VEC3"
		},
		{
			"bufferView":5,
			"componentType":5126,
			"count":469,
			"type":"VEC3"
		},
		{
			"bufferView":6,
			"componentType":5126,
			"count":469,
			"type":"VEC2"
		},
		{
			"bufferView":7,
			"componentType":5123,
			"count":789,
			"type":"SCALAR"
		}
	],
	"bufferViews":[
		{
			"buffer":0,
			"byteLength":6084,
			"byteOffset":0,
			"target":34962
		},
		{
			"buffer":0,
			"byteLength":6084,
			"byteOffset":6084,
			"target":34962
		},
		{
			"buffer":0,
			"byteLength":4056,
			"byteOffset":12168,
			"target":34962
		},
		{
			"buffer":0,
			"byteLength":1518,
			"byteOffset":16224,
			"target":34963
		},
		{
			"buffer":0,
			"byteLength":5628,
			"byteOffset":17744,
			"target":34962
		},
		{
			"buffer":0,
			"byteLength":5628,
			"byteOffset":23372,
			"target":34962
		},
		{
			"buffer":0,
			"byteLength":3752,
			"byteOffset":29000,
			"target":34962
		},
		{
			"buffer":0,
			"byteLength":1578,
			"byteOffset":32752,
			"target":34963
		}
	],
	"samplers":[
		{
			"magFilter":9729,
			"minFilter":9987
		}
	],
	"buffers":[
		{
			"byteLength":34332,
			"uri":"barrel.bin"
		}
	]
}
