{
	"asset":{
		"generator":"Khronos glTF Blender I/O v4.1.63",
		"version":"2.0"
	},
	"scene":0,
	"scenes":[
		{
			"name":"Scene",
			"nodes":[
				0
			]
		}
	],
	"nodes":[
		{
			"mesh":0,
			"name":"succulentA",
			"rotation":[
				0.7071068286895752,
				0,
				0,
				0.7071068286895752
			],
			"scale":[
				0.009999999776482582,
				0.009999999776482582,
				0.009999999776482582
			]
		}
	],
	"materials":[
		{
			"doubleSided":true,
			"name":"lambert1",
			"pbrMetallicRoughness":{
				"baseColorTexture":{
					"index":0
				},
				"metallicFactor":0,
				"roughnessFactor":0.5527864098548889
			}
		}
	],
	"meshes":[
		{
			"name":"Mesh",
			"primitives":[
				{
					"attributes":{
						"POSITION":0,
						"NORMAL":1,
						"TEXCOORD_0":2
					},
					"indices":3,
					"material":0
				}
			]
		}
	],
	"textures":[
		{
			"sampler":0,
			"source":0
		}
	],
	"images":[
		{
			"mimeType":"image/jpeg",
			"name":"plant_gradient_1",
			"uri":"textures/plant_gradient_1.jpg"
		}
	],
	"accessors":[
		{
			"bufferView":0,
			"componentType":5126,
			"count":3410,
			"max":[
				15.000727653503418,
				13.726851463317871,
				0.6520876884460449
			],
			"min":[
				-13.48511791229248,
				-15.272052764892578,
				-19.0347843170166
			],
			"type":"VEC3"
		},
		{
			"bufferView":1,
			"componentType":5126,
			"count":3410,
			"type":"VEC3"
		},
		{
			"bufferView":2,
			"componentType":5126,
			"count":3410,
			"type":"VEC2"
		},
		{
			"bufferView":3,
			"componentType":5123,
			"count":16368,
			"type":"SCALAR"
		}
	],
	"bufferViews":[
		{
			"buffer":0,
			"byteLength":40920,
			"byteOffset":0,
			"target":34962
		},
		{
			"buffer":0,
			"byteLength":40920,
			"byteOffset":40920,
			"target":34962
		},
		{
			"buffer":0,
			"byteLength":27280,
			"byteOffset":81840,
			"target":34962
		},
		{
			"buffer":0,
			"byteLength":32736,
			"byteOffset":109120,
			"target":34963
		}
	],
	"samplers":[
		{
			"magFilter":9729,
			"minFilter":9987
		}
	],
	"buffers":[
		{
			"byteLength":141856,
			"uri":"plant_small_3.bin"
		}
	]
}
